<svg width="1074" height="316" xmlns="http://www.w3.org/2000/svg" xmlns:xlink="http://www.w3.org/1999/xlink" xml:space="preserve" overflow="hidden"><defs><clipPath id="clip0"><rect x="587" y="91" width="1074" height="316"/></clipPath><clipPath id="clip1"><rect x="587" y="91" width="258" height="316"/></clipPath><clipPath id="clip2"><rect x="587" y="91" width="258" height="316"/></clipPath><clipPath id="clip3"><rect x="587" y="91" width="258" height="316"/></clipPath></defs><g clip-path="url(#clip0)" transform="translate(-587 -91)"><g clip-path="url(#clip1)"><g clip-path="url(#clip2)"><g clip-path="url(#clip3)"><path d="M23.9032 57.2312C23.229 60.4892 22.8858 63.807 22.8788 67.134 22.8788 87.6224 32.5084 106.677 46.5772 122.146 63.1459 140.16 84.6161 152.942 108.35 158.922L203.314 23.2544C197.471 19.1718 191.304 15.5743 184.874 12.498 137.066-10.3923 80.1076-1.57738 41.455 34.6938 37.4745 38.3797 33.7441 42.3268 30.2888 46.5089 28.8888 48.1821 27.8985 49.4114 26.8741 50.948 25.3752 52.762 24.3538 54.9218 23.9032 57.2312" fill="#005BAC" transform="matrix(1.00152 0 0 1 587 91.2899)"/><path d="M248.901 82.1247 248.901 82.8076C249.057 114.423 236.681 144.813 214.48 167.323 180.096 202.304 127.925 212.922 82.6028 194.163L35.2743 194.163 52.9969 176.406C24.9047 153.626 8.59339 119.385 8.60517 83.2174L8.60517 82.193C-17.1673 148.497 15.6899 223.139 81.9936 248.912 148.298 274.684 222.94 241.827 248.713 175.524 260.243 145.86 260.383 112.978 249.106 83.2174Z" fill="#005BAC" transform="matrix(1.00152 0 0 1 587 91.2899)"/><path d="M80.1783 315.284 72.7683 315.284C72.3428 315.287 71.9348 315.114 71.6414 314.806 71.3348 314.525 71.161 314.129 71.1634 313.713L71.1634 300.498 52.9969 276.185C52.5926 275.721 52.5117 275.059 52.792 274.512 53.0485 273.966 53.5894 273.609 54.1921 273.59L63.3094 273.59C63.7831 273.601 64.2297 273.811 64.5387 274.17L76.4562 290.766 88.3395 274.204C88.6363 273.826 89.0877 273.6 89.5688 273.59L98.7204 273.59C99.3381 273.588 99.8995 273.949 100.155 274.512 100.435 275.059 100.354 275.721 99.9497 276.185L81.954 300.498 81.954 313.679C81.9564 314.094 81.7825 314.491 81.4759 314.772 81.1826 315.08 80.7745 315.253 80.349 315.25Z" fill="#005BAC" transform="matrix(1.00152 0 0 1 587 91.2899)"/><path d="M151.137 315.284 143.795 315.284C143.447 315.27 143.117 315.123 142.873 314.874L118.97 288.136 118.97 314.601C118.97 314.978 118.664 315.284 118.287 315.284L109.511 315.284C109.134 315.284 108.828 314.978 108.828 314.601L108.828 274.307C108.828 273.929 109.134 273.624 109.511 273.624L118.697 273.624C119.04 273.658 119.363 273.801 119.619 274.034L141.575 298.347 141.575 274.443C141.594 274.061 141.909 273.76 142.293 273.76L151.137 273.76C151.514 273.76 151.82 274.066 151.82 274.443L151.82 314.737C151.82 315.115 151.514 315.42 151.137 315.42Z" fill="#005BAC" transform="matrix(1.00152 0 0 1 587 91.2899)"/><path d="M182.177 315.42 182.177 315.42C177.391 315.614 172.65 314.429 168.518 312.006 163.615 308.673 160.837 303 161.21 297.083L161.21 274.204C161.21 273.827 161.515 273.521 161.892 273.521 161.904 273.52 161.916 273.521 161.927 273.521L170.737 273.521C171.115 273.521 171.42 273.827 171.42 274.204L171.42 297.083C171.141 299.624 172.063 302.15 173.913 303.913 176.348 305.541 179.256 306.31 182.177 306.098 185.099 306.321 188.011 305.551 190.441 303.913 192.371 302.198 193.341 299.647 193.036 297.083L193.036 274.204C193.036 273.827 193.341 273.521 193.719 273.521L202.495 273.521C202.858 273.539 203.144 273.84 203.143 274.204L203.143 297.083C203.519 302.982 200.754 308.642 195.87 311.971 191.733 314.383 186.996 315.567 182.211 315.386Z" fill="#005BAC" transform="matrix(1.00152 0 0 1 587 91.2899)"/></g></g></g><path d="M988.479 346.39C988.841 346.39 989.383 346.598 990.106 347.012 999.243 351.622 1011.99 354.859 1028.36 356.724 1026.29 358.9 1024.18 361.593 1022.01 364.804 1020.51 367.083 1019.14 368.223 1017.9 368.223 1017.34 368.223 1016.15 368.042 1014.34 367.679 999.372 364.882 987.447 360.557 978.568 354.704 977.948 354.29 977.639 353.979 977.639 353.772 977.639 353.513 978.206 352.969 979.342 352.14L986.466 347.323C987.344 346.701 988.015 346.39 988.479 346.39ZM974.076 329.375 974.076 336.679 998.081 336.679 998.081 329.375ZM936.675 329.375 936.675 336.679 959.829 336.679 959.829 329.375ZM974.076 312.982 974.076 320.129 998.081 320.129 998.081 312.982ZM936.675 312.982 936.675 320.129 959.829 320.129 959.829 312.982ZM1063.59 307.387C1065.97 309.977 1068.83 312.593 1072.19 315.235 1074.51 316.996 1075.67 318.317 1075.67 319.197 1075.67 319.715 1075.41 320.932 1074.9 322.849 1070.04 336.886 1065.37 348.825 1060.88 358.666 1059.33 362.033 1058.56 364.079 1058.56 364.804 1058.56 366.307 1057.96 367.057 1056.78 367.057 1055.9 367.057 1054.89 366.747 1053.76 366.125 1049.68 363.587 1045.6 360.79 1041.52 357.734 1044.67 353.487 1047.28 349.239 1049.34 344.992 1054.04 334.995 1058.79 322.46 1063.59 307.387ZM1580.08 307.154C1585.5 307.31 1591 307.621 1596.57 308.087 1598.28 308.294 1599.13 308.838 1599.13 309.718 1599.13 310.236 1598.82 311.246 1598.2 312.749 1597.68 313.784 1597.43 316.323 1597.43 320.363L1620.89 320.363 1642.73 320.052C1643.55 320.052 1644.07 320.155 1644.27 320.363 1644.43 320.622 1644.51 321.14 1644.51 321.916L1644.51 333.105C1644.51 333.882 1644.42 334.361 1644.24 334.542 1644.05 334.723 1643.55 334.814 1642.73 334.814L1620.89 334.503 1597.43 334.503 1597.43 347.789 1639.4 347.789 1659.37 347.633C1660.2 347.633 1660.69 347.711 1660.84 347.867 1660.95 348.022 1661 348.462 1661 349.188L1661 361.308C1661 362.189 1660.92 362.707 1660.77 362.862 1660.56 363.017 1660.1 363.095 1659.37 363.095L1639.4 362.784 1541.05 362.784 1521.23 363.095C1520.46 363.095 1519.99 362.992 1519.84 362.784 1519.73 362.629 1519.68 362.137 1519.68 361.308L1519.68 349.188C1519.68 348.359 1519.76 347.893 1519.91 347.789 1520.07 347.686 1520.51 347.633 1521.23 347.633L1541.05 347.789 1581.09 347.789 1581.09 334.503 1559.64 334.503 1537.72 334.814C1536.9 334.814 1536.41 334.71 1536.25 334.503 1536.1 334.296 1536.02 333.83 1536.02 333.105L1536.02 321.916C1536.02 321.036 1536.12 320.492 1536.33 320.285 1536.54 320.129 1537 320.052 1537.72 320.052L1559.64 320.363 1581.09 320.363C1581.09 315.079 1580.75 310.677 1580.08 307.154ZM1114.62 304.746C1117 309.977 1118.6 313.784 1119.42 316.167L1139.71 316.167C1141.41 313.111 1143.14 309.304 1144.9 304.746ZM1227.6 294.646 1227.6 329.997 1241.38 329.997 1241.38 294.646ZM915.304 286.099 936.985 286.41 1002.65 286.41 1024.56 286.099C1025.6 286.099 1026.11 286.617 1026.11 287.653L1026.11 296.277C1026.11 297.417 1025.6 297.986 1024.56 297.986L1002.65 297.676 974.076 297.676 974.076 303.425 989.641 303.425 1010.86 303.114C1012.05 303.114 1012.64 303.658 1012.64 304.746L1012.33 316.944 1012.33 332.716 1012.64 344.837C1012.64 345.614 1012.55 346.093 1012.37 346.274 1012.19 346.455 1011.68 346.546 1010.86 346.546L989.641 346.235 944.341 346.235C946.768 347.271 950.33 349.136 955.028 351.829 956.318 352.658 956.963 353.383 956.963 354.005 956.963 354.885 956.164 355.481 954.563 355.792 953.53 355.999 951.595 356.802 948.756 358.2 939.721 362.707 929.578 366.099 918.323 368.379 916.414 368.741 915.226 368.922 914.762 368.922 913.781 368.922 912.749 367.99 911.664 366.125 909.032 362.085 906.863 359.262 905.159 357.656 915.226 356.154 925.422 353.668 935.746 350.198 939.515 348.851 942.199 347.53 943.8 346.235L924.131 346.546C923.305 346.546 922.815 346.442 922.66 346.235 922.505 346.028 922.428 345.562 922.428 344.837L922.737 332.716 922.737 316.944 922.428 304.746C922.428 303.658 922.995 303.114 924.131 303.114L945.581 303.425 959.829 303.425 959.829 297.676 936.985 297.676 915.304 297.986C914.477 297.986 913.961 297.883 913.755 297.676 913.6 297.468 913.523 297.002 913.523 296.277L913.523 287.653C913.523 286.617 914.116 286.099 915.304 286.099ZM1412.98 283.69C1419.38 284.001 1424.88 284.493 1429.47 285.167 1431.59 285.477 1432.65 286.203 1432.65 287.342 1432.65 288.171 1432.28 289.181 1431.56 290.372 1430.84 291.356 1430.4 294.024 1430.24 298.375L1429.93 302.804 1442.17 302.648C1448.67 302.545 1454.69 302.415 1460.21 302.26 1463.31 302.208 1464.94 302.182 1465.09 302.182 1466.28 302.182 1466.87 302.751 1466.87 303.891 1466.66 306.74 1466.46 311.946 1466.25 319.508L1465.63 342.894C1465.58 343.361 1465.55 343.878 1465.55 344.448 1465.55 346.676 1465.99 348.229 1466.87 349.11 1468.06 350.249 1471.39 350.819 1476.86 350.819 1482.23 350.819 1485.56 349.654 1486.85 347.323 1488.04 344.785 1488.73 339.398 1488.94 331.162 1492.45 333.079 1496.35 334.503 1500.63 335.435 1502.34 335.901 1503.37 336.29 1503.73 336.601 1504.14 336.963 1504.35 337.611 1504.35 338.544 1504.35 338.958 1504.27 339.942 1504.12 341.496 1503.14 351.804 1500.92 358.407 1497.46 361.308 1493.38 364.623 1486.1 366.28 1475.62 366.28 1463.64 366.28 1456.18 365.064 1453.24 362.629 1450.15 360.091 1448.67 355.533 1448.83 348.955L1449.91 316.789 1427.84 317.099C1424.95 330.049 1418.86 340.615 1409.57 348.799 1401.57 355.844 1390.29 361.955 1375.73 367.135 1373.97 367.757 1372.79 368.067 1372.17 368.067 1371.55 368.067 1371.01 367.731 1370.54 367.057 1370.49 367.006 1369.92 366.022 1368.84 364.105 1367.24 360.946 1364.55 357.76 1360.79 354.549 1376.84 350.405 1388.79 345.251 1396.64 339.087 1403.71 333.493 1408.56 326.268 1411.2 317.41L1393.93 317.566C1383.45 317.721 1376.43 317.954 1372.87 318.265 1371.94 318.265 1371.37 318.161 1371.16 317.954 1371.01 317.747 1370.93 317.255 1370.93 316.478L1370.77 304.513C1370.77 303.788 1370.9 303.347 1371.16 303.192 1371.37 303.036 1371.88 302.959 1372.71 302.959L1384.71 303.192C1387.45 303.192 1390.47 303.166 1393.77 303.114L1413.6 302.959C1413.8 300.524 1413.91 298.504 1413.91 296.899 1413.91 291.097 1413.6 286.695 1412.98 283.69ZM1584.73 274.444C1581.32 281.178 1577.94 286.954 1574.58 291.771 1587.23 291.356 1601.12 290.631 1616.24 289.595L1608.5 282.059C1607.93 281.593 1607.65 281.204 1607.65 280.893 1607.65 280.583 1608.24 280.09 1609.43 279.417L1617.02 274.444ZM952.55 266.986 952.55 272.58 981.046 272.58 981.046 266.986ZM1050.58 265.043C1050.89 265.043 1051.36 265.225 1051.98 265.587 1060.6 270.456 1068 275.869 1074.2 281.826 1074.77 282.344 1075.05 282.758 1075.05 283.069 1075.05 283.38 1074.72 284.027 1074.05 285.011L1067.23 294.179C1066.4 295.267 1065.78 295.811 1065.37 295.811 1065.06 295.811 1064.62 295.526 1064.06 294.956 1057.96 288.896 1050.61 283.12 1041.99 277.63 1041.26 277.216 1040.9 276.802 1040.9 276.387 1040.9 276.128 1041.21 275.61 1041.83 274.833L1048.8 266.364C1049.52 265.484 1050.12 265.043 1050.58 265.043ZM1120.82 264.499C1125.77 264.603 1131.06 264.914 1136.69 265.432 1138.29 265.587 1139.09 266.209 1139.09 267.297 1139.09 267.918 1138.83 268.825 1138.32 270.016 1137.8 270.897 1137.46 271.803 1137.31 272.735L1152.87 272.735 1174.25 272.425C1175.43 272.425 1176.03 272.943 1176.03 273.978L1176.03 283.146C1176.03 283.975 1175.92 284.467 1175.72 284.623 1175.51 284.778 1175.02 284.856 1174.25 284.856L1152.87 284.545 1137.31 284.545 1137.31 292.625 1162.4 292.625 1184.23 292.315C1185.11 292.315 1185.63 292.418 1185.78 292.625 1185.94 292.884 1186.02 293.428 1186.02 294.257L1186.02 303.347C1186.02 304.124 1185.92 304.603 1185.74 304.785 1185.56 304.966 1185.06 305.057 1184.23 305.057L1162.4 304.746 1161.24 304.746C1160.77 305.108 1160.26 305.86 1159.69 306.999 1157.47 311.402 1155.89 314.458 1154.96 316.167L1162.24 316.167 1184.08 315.856C1184.96 315.856 1185.47 315.986 1185.63 316.245 1185.78 316.452 1185.86 316.944 1185.86 317.721L1185.86 326.656C1185.86 327.537 1185.77 328.08 1185.59 328.287 1185.41 328.495 1184.91 328.599 1184.08 328.599L1162.24 328.287 1137.31 328.287 1137.31 336.834 1156.2 336.834 1177.88 336.523C1178.76 336.523 1179.28 336.627 1179.43 336.834 1179.59 337.041 1179.67 337.507 1179.67 338.232L1179.67 347.867C1179.67 348.644 1179.58 349.123 1179.39 349.304 1179.21 349.486 1178.71 349.576 1177.88 349.576L1156.2 349.265 1137.31 349.265 1137.31 353.228 1137.62 367.368C1137.62 368.456 1137.1 369 1136.07 369L1123.06 369C1122.13 369 1121.59 368.896 1121.43 368.689 1121.33 368.534 1121.28 368.094 1121.28 367.368L1121.43 353.228 1121.43 349.265 1105.64 349.265 1084.03 349.576C1083.21 349.576 1082.72 349.473 1082.56 349.265 1082.41 349.058 1082.33 348.592 1082.33 347.867L1082.33 338.232C1082.33 337.456 1082.42 336.976 1082.6 336.795 1082.78 336.614 1083.26 336.523 1084.03 336.523L1105.64 336.834 1121.43 336.834 1121.43 328.287 1101.46 328.287 1079.47 328.599C1078.59 328.599 1078.07 328.469 1077.92 328.21 1077.76 328.003 1077.68 327.484 1077.68 326.656L1077.68 317.721C1077.68 316.84 1077.79 316.297 1077.99 316.089 1078.2 315.934 1078.69 315.856 1079.47 315.856L1101.46 316.167 1103.86 316.167C1102.36 311.92 1100.68 308.113 1098.82 304.746L1079.47 305.057C1078.64 305.057 1078.12 304.953 1077.92 304.746 1077.76 304.538 1077.68 304.072 1077.68 303.347L1077.68 294.257C1077.68 293.325 1077.79 292.755 1077.99 292.547 1078.2 292.392 1078.69 292.315 1079.47 292.315L1101.46 292.625 1121.43 292.625 1121.43 284.545 1108.12 284.545 1087.05 284.856C1086.23 284.856 1085.71 284.752 1085.51 284.545 1085.35 284.338 1085.27 283.872 1085.27 283.146L1085.27 273.978C1085.27 272.943 1085.87 272.425 1087.05 272.425L1108.12 272.735 1121.43 272.735C1121.28 269.317 1121.07 266.571 1120.82 264.499ZM1545.24 260.615 1564.75 260.926 1615.47 260.926 1634.83 260.615C1635.65 260.615 1636.14 260.718 1636.3 260.926 1636.45 261.133 1636.53 261.599 1636.53 262.324L1636.53 273.046C1636.53 273.875 1636.43 274.367 1636.22 274.522 1636.01 274.678 1635.55 274.756 1634.83 274.756 1634.72 274.756 1633.15 274.729 1630.1 274.678 1626.85 274.574 1623.34 274.497 1619.57 274.444L1620.19 274.911C1628.61 281.593 1637.18 290.243 1645.9 300.861 1646.36 301.483 1646.6 301.975 1646.6 302.337 1646.6 302.855 1646.11 303.477 1645.13 304.202L1636.22 310.573C1635.55 311.091 1635.03 311.35 1634.67 311.35 1634.16 311.35 1633.67 310.987 1633.2 310.262L1626.39 301.172C1598.92 303.813 1571.43 305.626 1543.92 306.61 1540.87 306.714 1538.99 307.025 1538.27 307.543 1537.54 308.061 1536.85 308.32 1536.18 308.32 1535.3 308.32 1534.7 307.621 1534.39 306.222 1533.72 303.27 1532.85 298.556 1531.76 292.081 1535.53 292.289 1541.03 292.392 1548.25 292.392 1552.13 292.392 1555.07 292.34 1557.08 292.237 1561.88 284.778 1565.21 278.847 1567.07 274.444L1564.75 274.444 1545.24 274.756C1544.41 274.756 1543.89 274.652 1543.69 274.444 1543.53 274.237 1543.45 273.771 1543.45 273.046L1543.45 262.324C1543.45 261.496 1543.56 261.003 1543.76 260.848 1543.97 260.693 1544.46 260.615 1545.24 260.615ZM1407.71 253.933C1413.39 256.16 1417.73 258.077 1420.72 259.682 1422.42 260.615 1423.28 261.573 1423.28 262.557 1423.28 263.438 1422.58 264.396 1421.18 265.432 1420.15 266.313 1418.58 268.385 1416.46 271.648 1409.29 282.37 1398.34 290.32 1383.63 295.5 1381.87 296.121 1380.66 296.433 1379.99 296.433 1379.11 296.433 1377.95 295.06 1376.5 292.315 1374.23 288.533 1371.86 285.607 1369.38 283.535 1378.62 280.997 1385.75 278.252 1390.75 275.299 1395.81 272.295 1399.84 268.514 1402.83 263.956 1405.16 260.485 1406.78 257.144 1407.71 253.933ZM938.069 249.194C943.129 249.349 947.774 249.66 952.008 250.126 953.298 250.281 953.943 250.696 953.943 251.369 953.943 251.628 953.737 252.276 953.324 253.311 952.911 254.399 952.653 255.616 952.55 256.963L981.046 256.963C980.891 253.855 980.633 251.266 980.272 249.194 985.124 249.349 989.719 249.608 994.055 249.97 995.862 250.126 996.765 250.592 996.765 251.369 996.765 251.68 996.558 252.276 996.145 253.156 995.733 253.985 995.475 255.047 995.371 256.341L1001.33 256.341 1021.31 256.186C1022.19 256.186 1022.71 256.264 1022.86 256.419 1023.02 256.626 1023.09 257.119 1023.09 257.896L1023.09 266.52C1023.09 267.348 1022.99 267.867 1022.78 268.073 1022.58 268.229 1022.09 268.307 1021.31 268.307L1001.33 267.918 995.371 267.918 995.681 279.883C995.681 280.764 995.578 281.282 995.371 281.437 995.164 281.593 994.674 281.67 993.9 281.67L977.406 281.359 956.963 281.359 940.315 281.67C939.386 281.67 938.818 281.567 938.611 281.359 938.456 281.152 938.379 280.66 938.379 279.883L938.689 267.918 936.211 267.918 917.627 268.307C916.801 268.307 916.31 268.203 916.155 267.996 916 267.789 915.923 267.297 915.923 266.52L915.923 257.896C915.923 257.015 916.026 256.497 916.233 256.341 916.388 256.238 916.852 256.186 917.627 256.186L936.211 256.341 938.689 256.341C938.534 253.596 938.327 251.214 938.069 249.194ZM1293.57 244.843 1293.57 283.535 1311.46 283.535 1311.46 244.843ZM1150.47 239.482 1150.47 251.369 1163.95 251.369 1163.95 239.482ZM1123.68 239.482 1123.68 251.369 1136.84 251.369 1136.84 239.482ZM1096.89 239.482 1096.89 251.369 1110.05 251.369 1110.05 239.482ZM1203.98 232.8 1220.16 233.111 1239.6 233.111 1255.78 232.8C1256.61 232.8 1257.1 232.904 1257.26 233.111 1257.41 233.318 1257.49 233.784 1257.49 234.509L1257.49 246.164C1257.49 246.992 1257.38 247.484 1257.18 247.64 1256.97 247.795 1256.51 247.873 1255.78 247.873L1239.6 247.562 1236.43 247.562C1234.52 259.165 1231.42 270.197 1227.13 280.66L1242.31 280.66 1253.69 280.349C1254.52 280.349 1255.04 280.453 1255.24 280.66 1255.4 280.867 1255.47 281.359 1255.47 282.136L1255.16 303.58 1255.16 319.508 1255.47 347.711C1255.47 348.54 1255.38 349.058 1255.2 349.265 1255.02 349.473 1254.52 349.576 1253.69 349.576L1243.08 349.576C1242.26 349.576 1241.77 349.473 1241.61 349.265 1241.46 349.006 1241.38 348.489 1241.38 347.711L1241.38 343.827 1227.6 343.827 1227.6 357.19C1227.6 358.019 1227.49 358.524 1227.29 358.705 1227.08 358.887 1226.54 358.977 1225.66 358.977L1215.05 358.977C1214.18 358.977 1213.63 358.874 1213.43 358.666 1213.27 358.459 1213.2 357.967 1213.2 357.19L1213.5 328.443 1213.5 306.455C1211.34 309.511 1209.01 312.619 1206.54 315.779 1205.35 317.281 1204.39 318.032 1203.67 318.032 1202.79 318.032 1202.2 317.022 1201.89 315.002 1201.22 310.236 1199.85 305.678 1197.79 301.327 1209.87 287.963 1217.63 270.042 1221.09 247.562L1220.16 247.562 1203.98 247.873C1203.15 247.873 1202.64 247.769 1202.43 247.562 1202.28 247.355 1202.2 246.889 1202.2 246.164L1202.2 234.509C1202.2 233.68 1202.33 233.189 1202.59 233.033 1202.74 232.877 1203.21 232.8 1203.98 232.8ZM1265.46 230.08 1285.6 230.391 1320.67 230.391 1340.81 230.08C1341.63 230.08 1342.12 230.184 1342.28 230.391 1342.43 230.599 1342.51 231.09 1342.51 231.868L1342.51 243.6C1342.51 244.636 1341.94 245.153 1340.81 245.153 1340.65 245.153 1340.06 245.128 1339.03 245.076 1335.46 244.972 1331.62 244.894 1327.49 244.843L1327.49 283.535 1344.76 283.224C1345.58 283.224 1346.07 283.354 1346.23 283.613 1346.38 283.82 1346.46 284.338 1346.46 285.167L1346.46 297.132C1346.46 297.908 1346.37 298.388 1346.19 298.569 1346.01 298.75 1345.53 298.841 1344.76 298.841 1344.55 298.841 1343.8 298.815 1342.51 298.764 1338.02 298.66 1333.01 298.582 1327.49 298.53L1327.49 344.215 1327.8 365.814C1327.8 366.643 1327.7 367.161 1327.49 367.368 1327.28 367.523 1326.79 367.601 1326.02 367.601L1312.85 367.601C1311.82 367.601 1311.3 367.006 1311.3 365.814L1311.46 344.215 1311.46 298.53 1293.26 298.53C1292.59 313.655 1290.84 325.439 1288 333.882 1284.23 345.95 1277.36 356.594 1267.4 365.814 1265.85 367.523 1264.74 368.379 1264.07 368.379 1263.5 368.379 1262.29 367.42 1260.43 365.504 1257.23 362.448 1253.72 360.065 1249.9 358.356 1260.48 351.208 1267.79 342.04 1271.81 330.852 1274.65 322.978 1276.41 312.205 1277.08 298.53 1272.9 298.582 1269.13 298.66 1265.77 298.764 1263.5 298.815 1262.34 298.841 1262.29 298.841 1261.46 298.841 1260.97 298.737 1260.82 298.53 1260.66 298.323 1260.58 297.857 1260.58 297.132L1260.58 285.167C1260.58 284.234 1260.69 283.664 1260.89 283.457 1261.1 283.302 1261.57 283.224 1262.29 283.224L1277.39 283.535 1277.39 244.843C1274.08 244.894 1271.06 244.972 1268.33 245.076 1266.47 245.128 1265.52 245.153 1265.46 245.153 1264.43 245.153 1263.91 244.636 1263.91 243.6L1263.91 231.868C1263.91 230.676 1264.43 230.08 1265.46 230.08ZM1084.73 227.206 1106.26 227.517 1154.73 227.517 1176.49 227.206C1177.42 227.206 1177.99 227.309 1178.19 227.517 1178.35 227.724 1178.43 228.216 1178.43 228.993L1178.12 239.637 1178.12 250.437 1178.43 260.926C1178.43 261.858 1178.3 262.428 1178.04 262.635 1177.83 262.79 1177.32 262.868 1176.49 262.868L1154.73 262.557 1106.26 262.557 1084.73 262.868C1083.85 262.868 1083.34 262.764 1083.18 262.557 1083.03 262.298 1082.95 261.755 1082.95 260.926L1083.26 250.437 1083.26 239.637 1082.95 228.993C1082.95 228.112 1083.05 227.594 1083.26 227.439 1083.47 227.284 1083.96 227.206 1084.73 227.206ZM1056.16 224.953C1056.47 224.953 1056.93 225.134 1057.55 225.497 1065.19 229.899 1072.6 235.467 1079.78 242.201 1080.39 242.667 1080.7 243.081 1080.7 243.444 1080.7 243.91 1080.34 244.609 1079.62 245.542L1072.81 254.943C1071.93 255.979 1071.33 256.497 1071.02 256.497 1070.56 256.497 1070.1 256.186 1069.63 255.565 1062.35 248.261 1055.05 242.356 1047.72 237.85 1046.99 237.436 1046.63 237.073 1046.63 236.763 1046.63 236.4 1046.99 235.752 1047.72 234.82L1054.53 226.118C1055.25 225.341 1055.8 224.953 1056.16 224.953ZM1420.72 223.554C1426.81 223.761 1432.46 224.098 1437.68 224.564 1439.48 224.719 1440.39 225.186 1440.39 225.963 1440.39 226.688 1440.03 227.698 1439.3 228.993 1438.79 230.08 1438.53 231.79 1438.53 234.121L1438.53 238.394 1476.86 238.394 1497.61 238.083C1498.49 238.083 1499.01 238.187 1499.16 238.394 1499.32 238.601 1499.39 239.093 1499.39 239.87L1499.08 247.329 1499.08 253.778 1499.39 270.327C1499.39 271.207 1499.29 271.725 1499.08 271.881 1498.88 272.036 1498.41 272.114 1497.69 272.114L1487.7 272.114C1487.08 279.728 1484.78 284.674 1480.81 286.954 1476.42 289.491 1469.45 290.761 1459.9 290.761 1449.37 290.761 1442.45 289.803 1439.15 287.886 1436.62 286.229 1435.36 282.395 1435.36 276.387L1435.36 268.151C1435.36 262.557 1435.02 258.103 1434.35 254.788 1440.34 254.943 1445.53 255.306 1449.91 255.875 1451.62 256.082 1452.47 256.626 1452.47 257.507 1452.47 258.595 1452.11 259.656 1451.38 260.693 1450.82 261.418 1450.53 264.37 1450.53 269.55L1450.53 271.648C1450.53 274.341 1451.02 275.999 1452 276.62 1453.04 277.242 1456.21 277.552 1461.53 277.552 1466.02 277.552 1469.06 276.802 1470.67 275.299 1472.11 273.745 1472.91 269.809 1473.07 263.49 1475.96 265.095 1479.29 266.261 1483.06 266.986L1483.06 252.223 1380.14 252.223 1380.14 270.327C1380.14 271.207 1380.04 271.725 1379.83 271.881 1379.63 272.036 1379.14 272.114 1378.36 272.114L1365.43 272.114C1364.55 272.114 1364.04 272.01 1363.88 271.803 1363.73 271.596 1363.65 271.104 1363.65 270.327L1363.96 253.778 1363.96 248.572 1363.65 239.87C1363.65 238.99 1363.75 238.472 1363.96 238.316 1364.17 238.161 1364.66 238.083 1365.43 238.083L1386.18 238.394 1421.88 238.394 1421.88 233.81C1421.88 230.288 1421.49 226.869 1420.72 223.554ZM1579.62 222C1585.55 222.156 1591.21 222.466 1596.57 222.932 1598.28 223.088 1599.13 223.684 1599.13 224.719 1599.13 225.186 1598.82 226.17 1598.2 227.672 1597.68 228.76 1597.43 230.883 1597.43 234.043L1597.43 235.83 1635.14 235.83 1655.97 235.519C1656.79 235.519 1657.28 235.623 1657.44 235.83 1657.59 236.089 1657.67 236.633 1657.67 237.462L1657.36 244.687 1657.36 250.903 1657.67 267.374C1657.67 268.203 1657.57 268.695 1657.36 268.851 1657.15 269.006 1656.66 269.084 1655.89 269.084L1643.27 269.084C1642.34 269.084 1641.77 268.98 1641.56 268.773 1641.41 268.566 1641.33 268.099 1641.33 267.374L1641.33 250.126 1538.73 250.126 1538.73 267.374C1538.73 268.203 1538.63 268.695 1538.42 268.851 1538.21 269.006 1537.75 269.084 1537.03 269.084L1524.33 269.084C1523.4 269.084 1522.83 268.98 1522.62 268.773 1522.47 268.566 1522.39 268.099 1522.39 267.374L1522.7 250.903 1522.7 245.853 1522.39 237.462C1522.39 236.529 1522.5 235.96 1522.7 235.752 1522.96 235.597 1523.5 235.519 1524.33 235.519L1545.08 235.83 1580.78 235.83 1580.78 233.888C1580.78 229.381 1580.39 225.419 1579.62 222ZM951.233 222C956.189 222 961.739 222.259 967.882 222.777 969.689 222.932 970.592 223.347 970.592 224.02 970.592 224.538 970.231 225.445 969.508 226.74 968.94 227.827 968.656 229.951 968.656 233.111L968.656 234.82 1002.81 234.82 1023.71 234.509C1024.54 234.509 1025 234.613 1025.11 234.82 1025.26 234.976 1025.34 235.442 1025.34 236.219L1025.34 245.853C1025.34 246.681 1025.23 247.174 1025.03 247.329 1024.87 247.484 1024.43 247.562 1023.71 247.562L1002.81 247.251 911.122 247.251 911.122 273.978C911.122 298.271 909.961 316.27 907.638 327.977 905.108 340.822 901.236 352.477 896.023 362.94 895.042 364.752 894.267 365.659 893.699 365.659 893.183 365.659 892.177 364.804 890.68 363.095 887.53 359.314 884.304 356.335 881 354.16 886.988 343.697 890.886 333.157 892.693 322.538 894.706 311.402 895.712 293.791 895.712 269.705L895.403 236.219C895.403 235.39 895.506 234.898 895.712 234.742 895.919 234.587 896.384 234.509 897.106 234.509L918.246 234.82 952.318 234.82 952.318 232.489C952.318 227.724 951.956 224.228 951.233 222Z" fill="#1B51A1" fill-rule="evenodd"/><path d="M946.23 187.33C946.445 187.33 946.705 187.422 947.011 187.607 952.617 191.27 959.357 193.933 967.229 195.595 965.851 197.473 964.717 199.428 963.829 201.46 963.185 202.999 962.542 203.769 961.899 203.769 961.562 203.769 960.827 203.63 959.694 203.353 952.128 200.829 945.741 197.412 940.533 193.102 940.196 192.825 940.028 192.594 940.028 192.409 940.028 192.163 940.318 191.84 940.901 191.439L944.944 188.022C945.526 187.56 945.955 187.33 946.23 187.33ZM924.221 186.96C926.948 188.499 929.107 189.946 930.7 191.301 931.343 191.794 931.665 192.24 931.665 192.64 931.665 193.071 931.312 193.394 930.608 193.609 929.72 193.948 928.816 194.456 927.897 195.133 923.578 198.551 918.217 201.291 911.815 203.353 910.682 203.661 909.961 203.815 909.655 203.815 909.043 203.815 908.414 203.03 907.771 201.46 906.822 199.644 905.597 197.874 904.095 196.15 911.447 194.579 917.221 192.332 921.418 189.407 922.552 188.699 923.486 187.884 924.221 186.96ZM1037.99 181.003C1038.24 181.003 1038.56 181.188 1038.96 181.557 1044.9 187.068 1052.48 191.486 1061.7 194.81 1060.47 195.919 1059.03 198.012 1057.38 201.091 1056.58 202.538 1055.9 203.261 1055.31 203.261 1055.01 203.261 1054.26 203.015 1053.06 202.522 1045.16 199.136 1038.01 194.179 1031.6 187.653 1031.3 187.376 1031.14 187.145 1031.14 186.96 1031.14 186.714 1031.45 186.344 1032.06 185.852L1036.89 181.696C1037.41 181.234 1037.78 181.003 1037.99 181.003ZM1013.27 180.911C1016.58 182.912 1019.06 184.512 1020.71 185.713 1021.39 186.236 1021.72 186.714 1021.72 187.145 1021.72 187.637 1021.31 188.084 1020.48 188.484 1019.84 188.823 1018.94 189.515 1017.77 190.562 1012.69 195.426 1006.76 199.336 999.991 202.291 998.674 202.722 997.893 202.937 997.648 202.937 997.127 202.937 996.438 202.245 995.58 200.86 994.048 198.212 992.471 196.227 990.847 194.903 998.536 192.409 1004.94 188.945 1010.05 184.512 1011.37 183.404 1012.44 182.204 1013.27 180.911ZM940.119 173.707 940.119 179.617 951.882 179.617 951.882 173.707ZM920.453 173.707 920.453 179.617 931.573 179.617 931.573 173.707ZM987.677 167.657C989.453 169.443 991.199 170.967 992.915 172.229 994.355 173.276 995.074 174.092 995.074 174.677 995.074 174.984 994.921 175.677 994.615 176.755 992.103 184.297 989.407 191.378 986.528 197.996 985.701 199.967 985.256 201.198 985.195 201.691 985.103 202.584 984.735 203.03 984.092 203.03 983.51 203.03 982.913 202.876 982.3 202.569 979.421 200.936 976.94 199.305 974.857 197.674 976.725 195.149 978.257 192.624 979.451 190.1 982.821 182.466 985.563 174.984 987.677 167.657ZM1127.04 162.809C1127.31 162.809 1127.68 163.071 1128.14 163.594 1129.83 165.564 1131.37 167.842 1132.78 170.428 1132.94 170.736 1133.01 170.952 1133.01 171.074 1133.01 171.321 1132.68 171.613 1132 171.952L1127.96 174.123C1127.53 174.338 1127.21 174.446 1126.99 174.446 1126.69 174.446 1126.38 174.107 1126.07 173.43 1124.88 170.659 1123.44 168.335 1121.76 166.457 1121.54 166.21 1121.43 166.011 1121.43 165.857 1121.43 165.702 1121.79 165.425 1122.49 165.025L1126.26 163.04C1126.6 162.886 1126.86 162.809 1127.04 162.809ZM940.119 161.424 940.119 167.011 951.882 167.011 951.882 161.424ZM920.453 161.424 920.453 167.011 931.573 167.011 931.573 161.424ZM1016.16 152.788 1016.16 169.551 1034.31 169.551 1034.31 152.788ZM1187.88 147.939C1188.18 147.939 1188.44 148.216 1188.66 148.77 1193.31 159.545 1196.45 170.136 1198.08 180.541 1198.14 180.849 1198.17 181.065 1198.17 181.188 1198.17 181.588 1197.75 181.911 1196.93 182.157L1189.58 184.605C1189.09 184.789 1188.73 184.882 1188.52 184.882 1188.15 184.882 1187.91 184.574 1187.78 183.959 1186.25 172.968 1183.31 162.378 1178.96 152.188 1178.84 151.849 1178.78 151.618 1178.78 151.495 1178.78 151.218 1179.18 150.941 1179.97 150.664L1186.87 148.216C1187.32 148.031 1187.66 147.939 1187.88 147.939ZM1221.19 147.339C1226.15 148.601 1229.72 149.663 1231.89 150.525 1232.66 150.772 1233.04 151.218 1233.04 151.865 1233.04 152.48 1232.74 153.111 1232.12 153.758 1231.48 154.466 1230.88 155.728 1230.33 157.544 1227.21 168.35 1223.61 178.971 1219.53 189.407L1235.43 189.407 1247.1 189.223C1247.59 189.223 1247.89 189.284 1247.98 189.407 1248.07 189.531 1248.11 189.808 1248.11 190.239L1248.11 198.227C1248.11 198.689 1248.06 198.974 1247.95 199.082 1247.85 199.19 1247.56 199.243 1247.1 199.243L1235.43 199.059 1176.11 199.059 1164.44 199.243C1163.83 199.243 1163.52 198.905 1163.52 198.227L1163.52 190.239C1163.52 189.562 1163.83 189.223 1164.44 189.223L1176.11 189.407 1209.15 189.407C1212.8 180.172 1216.32 169.166 1219.72 156.39 1220.48 153.127 1220.97 150.11 1221.19 147.339ZM1411.78 146.693C1412.4 146.693 1413.76 147.693 1415.87 149.694 1417.62 151.541 1418.49 152.896 1418.49 153.758 1418.49 154.497 1418.11 155.005 1417.34 155.282 1416.03 155.959 1414.53 157.006 1412.84 158.422 1408.4 162.208 1404 165.472 1399.65 168.212L1399.65 169.736 1423.18 169.736 1434.94 169.551C1435.43 169.551 1435.74 169.612 1435.86 169.736 1435.95 169.858 1436 170.151 1436 170.613L1436 177.909C1436 178.371 1435.95 178.655 1435.84 178.763 1435.73 178.871 1435.43 178.925 1434.94 178.925L1423.18 178.74 1399.65 178.74 1399.65 184.882 1399.84 193.102C1399.84 196.858 1398.84 199.443 1396.85 200.86 1395.5 201.691 1393.77 202.245 1391.66 202.522 1389.64 202.799 1386.56 202.937 1382.42 202.937 1380.89 202.937 1379.99 202.815 1379.71 202.569 1379.44 202.322 1379.12 201.537 1378.75 200.213 1378.04 197.565 1377.11 195.257 1375.94 193.287 1379.68 193.656 1383.04 193.84 1386.01 193.84 1387.45 193.84 1388.43 193.594 1388.95 193.102 1389.44 192.609 1389.68 191.763 1389.68 190.562L1389.68 178.74 1364.92 178.74 1353.15 178.925C1352.66 178.925 1352.37 178.863 1352.28 178.74 1352.19 178.617 1352.14 178.34 1352.14 177.909L1352.14 170.613C1352.14 170.089 1352.2 169.782 1352.33 169.689 1352.45 169.597 1352.73 169.551 1353.15 169.551L1364.92 169.736 1389.68 169.736C1389.56 166.195 1389.38 163.517 1389.13 161.7L1394.6 162.254C1397.45 160.408 1400.3 158.145 1403.15 155.466L1382.84 155.466 1370.66 155.651C1369.99 155.651 1369.65 155.343 1369.65 154.728L1369.65 148.078C1369.65 147.585 1369.71 147.293 1369.83 147.201 1369.96 147.108 1370.23 147.062 1370.66 147.062L1382.84 147.247 1408.34 147.247C1409.56 147.247 1410.31 147.185 1410.59 147.062 1411.23 146.815 1411.63 146.693 1411.78 146.693ZM980.968 142.398C981.152 142.398 981.443 142.506 981.841 142.721 987.263 145.615 992.026 148.863 996.131 152.465 996.498 152.834 996.683 153.081 996.683 153.204 996.683 153.388 996.498 153.773 996.131 154.358L991.904 160.408C991.628 160.838 991.368 161.054 991.122 161.054 990.939 161.054 990.663 160.869 990.296 160.5 986.13 156.682 981.412 153.219 976.143 150.11 975.653 149.802 975.408 149.54 975.408 149.325 975.408 149.202 975.638 148.863 976.098 148.309L979.957 143.183C980.355 142.659 980.692 142.398 980.968 142.398ZM1088.81 136.21 1100.76 136.395 1122.63 136.395 1134.67 136.21C1135.28 136.21 1135.59 136.549 1135.59 137.226L1135.59 143.552C1135.59 144.261 1135.28 144.614 1134.67 144.614L1122.63 144.43 1115.74 144.43 1115.74 154.358 1120.65 154.358 1131.36 154.173C1131.85 154.173 1132.15 154.235 1132.28 154.358 1132.37 154.481 1132.42 154.759 1132.42 155.189L1132.42 161.424C1132.42 161.947 1132.34 162.254 1132.19 162.347 1132.09 162.439 1131.82 162.485 1131.36 162.485L1120.65 162.301 1115.74 162.301 1115.74 174.862 1123.46 174.862 1135.59 174.677C1136.14 174.677 1136.47 174.738 1136.6 174.862 1136.69 174.984 1136.73 175.261 1136.73 175.692L1136.73 182.25C1136.73 182.712 1136.67 182.996 1136.55 183.104 1136.43 183.212 1136.11 183.266 1135.59 183.266L1123.46 183.081 1099.75 183.081 1087.61 183.266C1087.06 183.266 1086.73 183.204 1086.6 183.081 1086.51 182.958 1086.47 182.681 1086.47 182.25L1086.47 175.692C1086.47 175.2 1086.54 174.908 1086.7 174.815 1086.82 174.723 1087.13 174.677 1087.61 174.677L1099.75 174.862 1106.22 174.862 1106.22 162.301 1102.55 162.301 1091.66 162.485C1091.14 162.485 1090.83 162.424 1090.74 162.301 1090.65 162.178 1090.6 161.885 1090.6 161.424L1090.6 155.189C1090.6 154.697 1090.66 154.404 1090.79 154.312 1090.91 154.22 1091.2 154.173 1091.66 154.173L1102.55 154.358 1106.22 154.358 1106.22 144.43 1100.76 144.43 1088.81 144.614C1088.2 144.614 1087.89 144.261 1087.89 143.552L1087.89 137.226C1087.89 136.549 1088.2 136.21 1088.81 136.21ZM930.057 134.132 930.057 140.92 941.36 140.92 941.36 134.132ZM1082.61 129.976 1082.61 189.638 1140.59 189.638 1140.59 129.976ZM1073.6 120.879 1086.1 121.063 1137.19 121.063 1149.69 120.879C1150.21 120.879 1150.52 120.941 1150.61 121.063 1150.7 121.187 1150.75 121.479 1150.75 121.941L1150.57 144.614 1150.57 166.549 1150.75 202.845C1150.75 203.338 1150.69 203.646 1150.57 203.769 1150.44 203.861 1150.17 203.907 1149.74 203.907L1141.65 203.907C1141.13 203.907 1140.82 203.846 1140.73 203.723 1140.64 203.6 1140.59 203.307 1140.59 202.845L1140.59 198.412 1082.61 198.412 1082.61 202.937C1082.61 203.43 1082.55 203.738 1082.42 203.861 1082.3 203.954 1082.01 204 1081.55 204L1073.55 204C1073.1 204 1072.81 203.946 1072.71 203.838 1072.6 203.73 1072.54 203.43 1072.54 202.937L1072.73 166.641 1072.73 147.847 1072.54 121.941C1072.54 121.418 1072.61 121.11 1072.73 121.017 1072.85 120.925 1073.14 120.879 1073.6 120.879ZM985.149 118.755C985.302 118.755 985.548 118.831 985.885 118.986 991.582 122.31 996.284 125.589 999.991 128.822 1000.36 129.099 1000.54 129.345 1000.54 129.561 1000.54 129.745 1000.36 130.13 999.991 130.715L995.672 136.672C995.335 137.134 995.059 137.365 994.844 137.365 994.692 137.365 994.431 137.226 994.063 136.949 990.02 133.07 985.241 129.53 979.728 126.328 979.299 126.082 979.084 125.866 979.084 125.681 979.084 125.466 979.299 125.097 979.728 124.573L984.092 119.447C984.491 118.986 984.843 118.755 985.149 118.755ZM1293.24 118.385C1298.2 118.539 1301.8 118.786 1304.03 119.124 1305.17 119.37 1305.73 119.817 1305.73 120.464 1305.73 121.017 1305.55 121.68 1305.18 122.449 1304.69 123.311 1304.4 125.512 1304.31 129.053 1304.19 134.994 1304 139.35 1303.76 142.121L1328.02 142.121 1340.01 141.936C1340.5 141.936 1340.79 141.998 1340.89 142.121 1340.98 142.244 1341.02 142.521 1341.02 142.952L1341.02 150.71C1341.02 151.264 1340.96 151.603 1340.84 151.726 1340.72 151.819 1340.44 151.865 1340.01 151.865L1328.02 151.68 1305.55 151.68C1308.77 161.901 1313.81 170.644 1320.67 177.909 1327.01 184.589 1334.51 189.592 1343.18 192.917 1341.01 195.01 1339.19 197.381 1337.71 200.028 1336.89 201.599 1336.23 202.384 1335.74 202.384 1335.46 202.384 1334.74 202.061 1333.58 201.414 1317.8 192.948 1306.64 180.218 1300.08 163.224 1299.19 166.272 1298 169.304 1296.5 172.321 1290.28 185.159 1280.25 194.995 1266.4 201.83 1265.21 202.322 1264.46 202.569 1264.15 202.569 1263.63 202.569 1262.91 201.845 1261.99 200.398 1260.64 198.366 1258.85 196.38 1256.62 194.441 1270.98 188.869 1281.15 180.187 1287.13 168.396 1289.48 163.625 1291.17 158.052 1292.18 151.68L1271.69 151.68 1259.74 151.865C1259.22 151.865 1258.91 151.788 1258.82 151.634 1258.73 151.51 1258.68 151.202 1258.68 150.71L1258.68 142.952C1258.68 142.46 1258.74 142.167 1258.87 142.075 1258.99 141.982 1259.28 141.936 1259.74 141.936L1271.69 142.121 1293.24 142.121C1293.42 139.504 1293.57 135.24 1293.7 129.33 1293.7 128.652 1293.7 127.913 1293.7 127.113 1293.7 123.942 1293.54 121.033 1293.24 118.385ZM1046.08 118.108C1048.47 119.771 1050.95 121.818 1053.52 124.25 1054.07 124.804 1054.35 125.374 1054.35 125.958 1054.35 126.605 1053.84 126.974 1052.83 127.067 1051.58 127.19 1050.26 127.482 1048.88 127.944 1038.59 131.3 1027.68 133.763 1016.16 135.333L1016.16 144.014 1045.02 144.014 1056.6 143.829C1057.15 143.829 1057.49 143.891 1057.61 144.014 1057.7 144.137 1057.75 144.43 1057.75 144.892L1057.75 151.865C1057.75 152.388 1057.67 152.711 1057.52 152.834 1057.4 152.926 1057.09 152.973 1056.6 152.973L1045.02 152.788 1044.29 152.788 1044.29 169.551 1046.35 169.551 1059.45 169.366C1059.88 169.366 1060.14 169.443 1060.23 169.597 1060.32 169.72 1060.37 170.013 1060.37 170.475L1060.37 177.493C1060.37 178.017 1060.32 178.34 1060.23 178.463 1060.14 178.586 1059.88 178.648 1059.45 178.648L1046.35 178.463 1011.2 178.463 998.107 178.648C997.617 178.648 997.31 178.571 997.188 178.417 997.096 178.294 997.05 177.986 997.05 177.493L997.05 170.475C997.05 169.951 997.127 169.628 997.28 169.505 997.372 169.412 997.648 169.366 998.107 169.366L1006.01 169.551 1006.01 140.505C1006.01 133.516 1005.83 127.975 1005.46 123.881 1009.72 124.958 1012.84 125.897 1014.83 126.697 1023.32 125.712 1031.7 123.788 1039.97 120.925 1042.29 120.094 1044.33 119.155 1046.08 118.108ZM1199.36 117.739C1202.52 117.739 1205.96 117.892 1209.7 118.201 1210.71 118.324 1211.22 118.678 1211.22 119.263 1211.22 119.478 1211.03 120.109 1210.67 121.156 1210.36 121.987 1210.21 123.742 1210.21 126.42L1210.21 133.717 1230.33 133.717 1242.97 133.532C1243.46 133.532 1243.75 133.609 1243.84 133.763 1243.93 133.886 1243.98 134.178 1243.98 134.64L1243.98 142.306C1243.98 142.86 1243.92 143.198 1243.8 143.321 1243.67 143.414 1243.4 143.46 1242.97 143.46L1230.33 143.275 1181.4 143.275 1168.9 143.46C1168.41 143.46 1168.1 143.383 1167.98 143.229 1167.89 143.106 1167.84 142.798 1167.84 142.306L1167.84 134.64C1167.84 134.117 1167.9 133.793 1168.03 133.67 1168.15 133.578 1168.44 133.532 1168.9 133.532L1181.4 133.717 1200.05 133.717 1200.05 126.42C1200.05 122.48 1199.82 119.586 1199.36 117.739ZM890.816 117.184C894.247 117.277 897.265 117.508 899.868 117.877 900.94 118.093 901.476 118.431 901.476 118.893 901.476 119.509 901.293 120.14 900.925 120.786 900.466 121.587 900.236 124.589 900.236 129.791L900.236 135.379 907.404 135.148C907.894 135.148 908.185 135.21 908.277 135.333 908.369 135.456 908.414 135.748 908.414 136.21L908.414 140.736 921.326 140.92 921.326 134.132C918.478 134.163 915.935 134.209 913.699 134.27L911.447 134.317C910.957 134.317 910.651 134.255 910.528 134.132 910.436 133.978 910.39 133.655 910.39 133.162L910.39 127.39C910.39 126.897 910.452 126.605 910.574 126.513 910.697 126.42 910.988 126.374 911.447 126.374L921.326 126.559 921.326 126.374C921.326 122.372 921.143 119.309 920.775 117.184 924.512 117.308 927.484 117.508 929.689 117.785 930.578 117.877 931.022 118.154 931.022 118.616 931.022 118.74 930.868 119.278 930.562 120.233 930.225 120.941 930.057 122.988 930.057 126.374L930.057 126.559 941.36 126.559 941.36 126.374C941.36 122.372 941.176 119.339 940.809 117.277 944.484 117.4 947.456 117.6 949.723 117.877 950.55 117.97 950.963 118.247 950.963 118.709 950.963 119.139 950.81 119.678 950.504 120.324 950.167 120.941 949.998 122.957 949.998 126.374L949.998 126.559 962.267 126.374C962.757 126.374 963.048 126.436 963.14 126.559 963.232 126.682 963.277 126.959 963.277 127.39L963.277 133.162C963.277 133.717 963.216 134.055 963.094 134.178 962.971 134.27 962.696 134.317 962.267 134.317L949.998 134.132 949.998 140.92 952.664 140.92 965.529 140.736C966.019 140.736 966.326 140.797 966.448 140.92 966.54 141.044 966.586 141.321 966.586 141.752L966.586 147.754C966.586 148.278 966.525 148.601 966.402 148.724 966.28 148.817 965.989 148.863 965.529 148.863L952.664 148.678 940.119 148.678 940.119 154.635 947.563 154.635 959.877 154.45C960.398 154.45 960.705 154.528 960.796 154.681 960.888 154.805 960.934 155.097 960.934 155.559L960.75 164.056 960.75 177.032 960.934 185.575C960.934 186.036 960.88 186.321 960.773 186.429 960.666 186.537 960.368 186.591 959.877 186.591L947.563 186.406 925.002 186.406 912.688 186.591C912.167 186.591 911.861 186.529 911.769 186.406 911.677 186.283 911.631 186.005 911.631 185.575L911.815 177.032 911.815 164.056 911.631 155.559C911.631 155.036 911.692 154.712 911.815 154.589 911.937 154.497 912.228 154.45 912.688 154.45L925.002 154.635 931.481 154.635 931.481 148.678 921.234 148.678 908.414 148.863C907.863 148.863 907.541 148.801 907.45 148.678 907.358 148.555 907.312 148.247 907.312 147.754L907.312 143.968C907.189 143.968 906.47 143.937 905.152 143.875 903.743 143.845 902.196 143.814 900.511 143.783 902.166 148.617 905.489 154.281 910.482 160.777 909.257 162.747 908.2 165.072 907.312 167.75 906.914 168.889 906.561 169.459 906.255 169.459 906.01 169.459 905.642 168.951 905.152 167.934 902.855 163.717 901.124 159.746 899.96 156.021 899.991 166.734 900.113 177.971 900.328 189.731 900.389 192.317 900.466 195.611 900.558 199.613 900.588 201.429 900.603 202.445 900.603 202.66 900.603 203.369 900.297 203.723 899.685 203.723L892.149 203.723C891.628 203.723 891.322 203.661 891.23 203.538 891.138 203.415 891.092 203.122 891.092 202.66 891.092 202.538 891.138 200.367 891.23 196.15 891.536 183.774 891.72 172.29 891.781 161.7 889.882 169.027 887.339 175.277 884.154 180.449 883.571 181.526 883.127 182.065 882.821 182.065 882.484 182.065 882.178 181.557 881.902 180.541L881 178.527 881 167.498 891.092 143.783 890.357 143.783 881.994 143.968C881.473 143.968 881.151 143.906 881.029 143.783L881 143.506 881 135.894 881.121 135.286C881.213 135.194 881.504 135.148 881.994 135.148L890.357 135.379 891.505 135.379 891.505 129.883C891.505 124.373 891.276 120.14 890.816 117.184ZM1394.23 117C1394.6 117 1394.94 117.246 1395.24 117.739 1397.27 121.094 1399 124.758 1400.44 128.729 1400.53 129.037 1400.57 129.253 1400.57 129.376 1400.57 129.622 1400.17 129.883 1399.38 130.161L1393.27 132.331 1407.79 132.331C1409.17 129.961 1410.7 126.774 1412.38 122.772 1412.93 121.356 1413.41 119.694 1413.81 117.785 1417.11 118.431 1420.21 119.37 1423.09 120.602 1423.98 121.002 1424.42 121.479 1424.42 122.033 1424.42 122.556 1424.11 123.034 1423.5 123.465 1422.86 123.865 1422.26 124.589 1421.71 125.635 1420.39 128.098 1419.11 130.33 1417.85 132.331L1420.29 132.331 1432.69 132.146C1433.24 132.146 1433.58 132.208 1433.7 132.331 1433.79 132.454 1433.84 132.731 1433.84 133.162L1433.66 138.288 1433.66 142.629 1433.84 153.204C1433.84 153.758 1433.76 154.096 1433.61 154.22 1433.49 154.312 1433.18 154.358 1432.69 154.358L1425.29 154.358C1424.77 154.358 1424.47 154.281 1424.37 154.127 1424.28 154.004 1424.24 153.696 1424.24 153.204L1424.24 140.736 1364 140.736 1364 153.204C1364 153.727 1363.94 154.035 1363.81 154.127 1363.69 154.22 1363.42 154.266 1362.99 154.266L1355.54 154.266C1354.99 154.266 1354.65 154.204 1354.53 154.081 1354.44 153.958 1354.39 153.665 1354.39 153.204L1354.58 142.537 1354.58 139.027 1354.39 133.162C1354.39 132.67 1354.47 132.377 1354.62 132.285 1354.75 132.193 1355.05 132.146 1355.54 132.146L1367.95 132.331 1370.48 132.331C1368.98 128.667 1366.97 125.143 1364.46 121.756 1364.24 121.418 1364.14 121.171 1364.14 121.017 1364.14 120.771 1364.47 120.54 1365.15 120.324L1370.8 118.247C1371.23 118.062 1371.56 117.97 1371.81 117.97 1372.15 117.97 1372.5 118.216 1372.87 118.709 1375.29 121.849 1377.38 125.127 1379.16 128.545 1379.34 128.945 1379.44 129.206 1379.44 129.33 1379.44 129.545 1379.05 129.791 1378.29 130.068L1372.08 132.331 1391.66 132.331C1390.28 128.237 1388.49 124.296 1386.28 120.509 1386.1 120.202 1386.01 119.971 1386.01 119.817 1386.01 119.601 1386.39 119.355 1387.16 119.078L1393.36 117.184C1393.76 117.062 1394.05 117 1394.23 117Z" fill="#1B51A1" fill-rule="evenodd"/></g></svg>