<svg width="1149" height="366" xmlns="http://www.w3.org/2000/svg" xmlns:xlink="http://www.w3.org/1999/xlink" xml:space="preserve" overflow="hidden"><defs><clipPath id="clip0"><rect x="587" y="91" width="1149" height="366"/></clipPath><clipPath id="clip1"><rect x="587" y="91" width="258" height="316"/></clipPath><clipPath id="clip2"><rect x="587" y="91" width="258" height="316"/></clipPath><clipPath id="clip3"><rect x="587" y="91" width="258" height="316"/></clipPath></defs><g clip-path="url(#clip0)" transform="translate(-587 -91)"><g clip-path="url(#clip1)"><g clip-path="url(#clip2)"><g clip-path="url(#clip3)"><path d="M23.9032 57.2312C23.229 60.4892 22.8858 63.807 22.8788 67.134 22.8788 87.6224 32.5084 106.677 46.5772 122.146 63.1459 140.16 84.6161 152.942 108.35 158.922L203.314 23.2544C197.471 19.1718 191.304 15.5743 184.874 12.498 137.066-10.3923 80.1076-1.57738 41.455 34.6938 37.4745 38.3797 33.7441 42.3268 30.2888 46.5089 28.8888 48.1821 27.8985 49.4114 26.8741 50.948 25.3752 52.762 24.3538 54.9218 23.9032 57.2312" fill="#005BAC" transform="matrix(1.00152 0 0 1 587 91.2899)"/><path d="M248.901 82.1247 248.901 82.8076C249.057 114.423 236.681 144.813 214.48 167.323 180.096 202.304 127.925 212.922 82.6028 194.163L35.2743 194.163 52.9969 176.406C24.9047 153.626 8.59339 119.385 8.60517 83.2174L8.60517 82.193C-17.1673 148.497 15.6899 223.139 81.9936 248.912 148.298 274.684 222.94 241.827 248.713 175.524 260.243 145.86 260.383 112.978 249.106 83.2174Z" fill="#005BAC" transform="matrix(1.00152 0 0 1 587 91.2899)"/><path d="M80.1783 315.284 72.7683 315.284C72.3428 315.287 71.9348 315.114 71.6414 314.806 71.3348 314.525 71.161 314.129 71.1634 313.713L71.1634 300.498 52.9969 276.185C52.5926 275.721 52.5117 275.059 52.792 274.512 53.0485 273.966 53.5894 273.609 54.1921 273.59L63.3094 273.59C63.7831 273.601 64.2297 273.811 64.5387 274.17L76.4562 290.766 88.3395 274.204C88.6363 273.826 89.0877 273.6 89.5688 273.59L98.7204 273.59C99.3381 273.588 99.8995 273.949 100.155 274.512 100.435 275.059 100.354 275.721 99.9497 276.185L81.954 300.498 81.954 313.679C81.9564 314.094 81.7825 314.491 81.4759 314.772 81.1826 315.08 80.7745 315.253 80.349 315.25Z" fill="#005BAC" transform="matrix(1.00152 0 0 1 587 91.2899)"/><path d="M151.137 315.284 143.795 315.284C143.447 315.27 143.117 315.123 142.873 314.874L118.97 288.136 118.97 314.601C118.97 314.978 118.664 315.284 118.287 315.284L109.511 315.284C109.134 315.284 108.828 314.978 108.828 314.601L108.828 274.307C108.828 273.929 109.134 273.624 109.511 273.624L118.697 273.624C119.04 273.658 119.363 273.801 119.619 274.034L141.575 298.347 141.575 274.443C141.594 274.061 141.909 273.76 142.293 273.76L151.137 273.76C151.514 273.76 151.82 274.066 151.82 274.443L151.82 314.737C151.82 315.115 151.514 315.42 151.137 315.42Z" fill="#005BAC" transform="matrix(1.00152 0 0 1 587 91.2899)"/><path d="M182.177 315.42 182.177 315.42C177.391 315.614 172.65 314.429 168.518 312.006 163.615 308.673 160.837 303 161.21 297.083L161.21 274.204C161.21 273.827 161.515 273.521 161.892 273.521 161.904 273.52 161.916 273.521 161.927 273.521L170.737 273.521C171.115 273.521 171.42 273.827 171.42 274.204L171.42 297.083C171.141 299.624 172.063 302.15 173.913 303.913 176.348 305.541 179.256 306.31 182.177 306.098 185.099 306.321 188.011 305.551 190.441 303.913 192.371 302.198 193.341 299.647 193.036 297.083L193.036 274.204C193.036 273.827 193.341 273.521 193.719 273.521L202.495 273.521C202.858 273.539 203.144 273.84 203.143 274.204L203.143 297.083C203.519 302.982 200.754 308.642 195.87 311.971 191.733 314.383 186.996 315.567 182.211 315.386Z" fill="#005BAC" transform="matrix(1.00152 0 0 1 587 91.2899)"/></g></g></g><text fill="#1B51A1" font-family="Yu Gothic,Yu Gothic_MSFontService,sans-serif" font-weight="700" font-size="110" transform="matrix(1 0 0 1 877.939 360)">廣澤研究室<tspan font-size="64" x="-0.000366211" y="-116">横浜国立大学</tspan></text></g></svg>